<?xml version="1.0" standalone="no"?><!DOCTYPE svg PUBLIC "-//W3C//DTD SVG 1.1//EN" "http://www.w3.org/Graphics/SVG/1.1/DTD/svg11.dtd"><svg t="1757588190512" class="icon" viewBox="0 0 1024 1024" version="1.1" xmlns="http://www.w3.org/2000/svg" p-id="14597" xmlns:xlink="http://www.w3.org/1999/xlink" width="200" height="200"><path d="M213.333333 853.333333c-17.066667 0-29.866667-4.266667-42.666666-8.533333-29.866667-12.8-55.466667-38.4-68.266667-68.266667s-12.8-68.266667 0-98.133333c0 0 0-4.266667 4.266667-4.266667l298.666666-524.8c12.8-21.333333 29.866667-38.4 51.2-51.2 59.733333-34.133333 140.8-12.8 174.933334 51.2l298.666666 520.533334s0 4.266667 4.266667 4.266666c4.266667 12.8 8.533333 25.6 8.533333 42.666667 0 34.133333-8.533333 68.266667-34.133333 93.866667-21.333333 25.6-55.466667 38.4-89.6 42.666666H213.333333z m-34.133333-140.8c-4.266667 8.533333-4.266667 21.333333 0 29.866667s12.8 17.066667 21.333333 21.333333c4.266667 4.266667 8.533333 4.266667 12.8 4.266667h597.333334c8.533333 0 21.333333-4.266667 25.6-12.8s12.8-21.333333 12.8-29.866667c0-4.266667 0-8.533333-4.266667-12.8l-298.666667-520.533333c-8.533333-21.333333-34.133333-29.866667-55.466666-17.066667-8.533333 4.266667-12.8 8.533333-17.066667 17.066667L179.2 712.533333z" p-id="14598" fill="#3BD1E0"></path></svg>