<?xml version="1.0" standalone="no"?><!DOCTYPE svg PUBLIC "-//W3C//DTD SVG 1.1//EN" "http://www.w3.org/Graphics/SVG/1.1/DTD/svg11.dtd"><svg t="1757589769307" class="icon" viewBox="0 0 1024 1024" version="1.1" xmlns="http://www.w3.org/2000/svg" p-id="6658" xmlns:xlink="http://www.w3.org/1999/xlink" width="200" height="200"><path d="M797.866667 567.466667c-17.066667-17.066667-42.666667-17.066667-59.733334 0L554.666667 750.933333V170.666667c0-25.6-17.066667-42.666667-42.666667-42.666667s-42.666667 17.066667-42.666667 42.666667v580.266666l-183.466666-183.466666c-17.066667-17.066667-42.666667-12.8-59.733334 4.266666-17.066667 17.066667-17.066667 42.666667 0 59.733334l256 256c4.266667 4.266667 4.266667 4.266667 8.533334 4.266666s8.533333 4.266667 17.066666 4.266667h4.266667c4.266667 0 8.533333 0 17.066667-4.266667l8.533333-4.266666h4.266667l256-256c17.066667-21.333333 17.066667-46.933333 0-64z" p-id="6659" fill="#707070"></path></svg>