<svg width="1024" height="1024" version="1.1" viewBox="0 0 270.93 270.93" xmlns="http://www.w3.org/2000/svg">
 <g>
  <g id="svg-gamepad_base_frame">
   <path d="m41.908 62.133s-7.1061 3.8264-11.115 15.67c-4.0086 11.844-20.59 56.849-23.14 72.155-2.5509 15.306-7.6528 43.001-1.6399 57.396s20.772 20.043 20.772 20.043 2.7331 1.6399 8.746-3.2798c6.0129-4.9196 31.158-35.895 31.158-35.895s9.4748-12.39 21.318-12.39h90.375s10.386-0.91105 17.492 4.1908c7.1061 5.1018 37.353 41.908 37.353 41.908l3.8264 3.8264s2.7331 6.0129 14.941-2.5509c12.208-8.5638 13.804-18.864 13.804-18.864s4.896-9.7919 0.51538-37.622c-4.3806-27.83-25.253-95.471-32.726-101.01-7.4728-5.5402-13.572-9.953-27.602-13.415-14.03-3.462-19.314-3.1886-19.314-3.1886s-4.1908 0-6.7417 1.0933c-2.5509 1.0932-89.034 0-89.034 0s-1.6105-1.6254-10.243-0.78797c-8.6323 0.83747-27.889 4.4442-38.746 12.723z" style="fill:none;mix-blend-mode:darken;paint-order:normal;stroke-width:2.065;stroke:#808080"/>
   <rect x="97.801" y="47.195" width="74.807" height="1.5419" ry="0" style="fill:none;mix-blend-mode:darken;paint-order:normal;stroke-width:2.0719;stroke:#808080"/>
  </g>
  <path id="svg-gamepad-btn-lb" d="m42.646 60.169s3.221-7.8593 14.044-12.626c10.823-4.7671 19.842-5.669 19.842-5.669s3.9941-0.90189 8.3747-0.77305c4.3806 0.12884 10.898 5.2604 10.898 5.2604l0.05337 2.8566h-4.5094s-15.847-5.5402-48.702 10.951z" style="fill-opacity:.49741;fill:#ff9c00;mix-blend-mode:darken;paint-order:normal;stroke-width:2.065;stroke:#808080"/>
  <path id="svg-gamepad-btn-rb" d="m227.65 60.572s-3.221-7.8593-14.044-12.626c-10.823-4.7671-19.842-5.669-19.842-5.669s-3.9941-0.90188-8.3747-0.77304c-4.3806 0.12884-10.898 5.2604-10.898 5.2604l-0.0534 2.8566h4.5094s15.847-5.5402 48.702 10.951z" style="fill-opacity:.49741;fill:#ff9c00;mix-blend-mode:darken;paint-order:normal;stroke-width:2.065;stroke:#808080"/>
  <g id="svg-gamepad-g-leftstick" style="mix-blend-mode:darken;paint-order:normal">
   <ellipse id="svg-gamepad-leftstick" cx="65.875" cy="93.828" rx="10.049" ry="10.049" style="fill-opacity:.50259;fill:#ff9c00;paint-order:normal;stroke-width:1.743;stroke:#808080"/>
   <circle id="svg-gamepad-btn-leftstick" cx="65.875" cy="93.828" r="16.394" style="fill-opacity:.50259;fill:#ff9c00;paint-order:normal;stroke-width:2.543;stroke:#808080"/>
  </g>
  <g id="svg-gamepad-g-rightstick" transform="translate(106.17 41.638)" style="mix-blend-mode:darken;paint-order:normal">
   <circle id="svg-gamepad-rightstick" cx="65.875" cy="93.828" r="10.049" style="fill-opacity:.50259;fill:#ff9c00;paint-order:normal;stroke-width:1.743;stroke:#808080"/>
   <circle id="svg-gamepad-btn-rightstick" cx="65.875" cy="93.828" r="16.394" style="fill-opacity:.50259;fill:#ff9c00;paint-order:normal;stroke-width:2.543;stroke:#808080"/>
  </g>
  <path id="svg-gamepad-btn-guide" d="m128.14 74.365a11.093 11.093 0 0 0 7.3316 2.7555 11.105 11.105 0 0 0 7.3372-2.7555c1.7426-1.775-4.0079-8.0859-7.3372-10.601-3.326 2.5148-9.0809 8.8258-7.3338 10.601zm10.362-13.376c2.3209 2.7499 6.9483 9.5768 5.6413 11.989a11.089 11.089 0 0 0 2.4702-6.9962 11.095 11.095 0 0 0-3.3148-7.9255s-0.0256-0.02006-0.0758-0.03901a0.76436 0.76436 0 0 0-0.26072-0.04235c-0.55043 0-1.844 0.40335-4.4625 3.014zm-10.78-2.9705c-0.0535 0.01895-0.0758 0.0379-0.0802 0.03901a11.101 11.101 0 0 0-3.3126 7.9255c0 2.6507 0.92703 5.082 2.4702 6.9951-1.2992-2.4201 3.3248-9.2414 5.6469-11.988-2.6184-2.6129-3.9143-3.014-4.4625-3.014a0.67299 0.67299 0 0 0-0.26073 0.04346v-2e-3zm7.7494 0.11588s-2.7343-1.6-4.8692-1.6758c-0.83901-0.03007-1.3516 0.2741-1.4128 0.31421 1.9922-1.3371 4.1093-1.9365 6.2686-1.9365h0.0134c2.1672 0 4.2764 0.59945 6.282 1.9354-0.0624-0.04235-0.57048-0.34541-1.4106-0.31421-2.136 0.07577-4.8714 1.6713-4.8714 1.6713v0.0045z" style="fill-opacity:.5;fill:#ff9c00;mix-blend-mode:darken;paint-order:normal;stroke-width:.626;stroke:#808080" p-id="7437"/>
  <g id="svg-gamepad-btn-select-g" style="fill:none">
   <path id="svg-gamepad-btn-select" d="m152.6 100.99a7 7 0 0 1-4.4605-8.8153 7 7 0 0 1 8.7973-4.4959 7 7 0 0 1 4.5313 8.7791 7 7 0 0 1-8.7608 4.5666z" style="fill-opacity:.50442;fill:#ff9c00;stroke-width:1.165;stroke:#808080"/>
   <rect x="151.29" y="91.187" width="7.0218" height=".35431" style="fill:none;stroke:#808080"/>
   <rect x="151.29" y="93.208" width="7.0218" height=".35431" style="fill:none;stroke:#808080"/>
   <rect x="151.29" y="95.193" width="7.0218" height=".35431" style="fill:none;stroke:#808080"/>
   <rect x="151.29" y="97.275" width="7.0218" height=".35431" style="fill:none;stroke:#808080"/>
  </g>
  <g id="svg-gamepad-btn-share-g" style="fill:none">
   <path id="svg-gamepad-btn-share" d="m113.93 100.99a7 7 0 0 1-4.4605-8.8153 7 7 0 0 1 8.7973-4.4959 7 7 0 0 1 4.5313 8.7791 7 7 0 0 1-8.7608 4.5666z" style="fill-opacity:.50442;fill:#ff9c00;stroke-width:1.165;stroke:#808080"/>
   <path d="m112.12 90.87v4.6333h2.7332v-2.3167h2.7326v-2.3166z" style="fill:none;stroke-width:.85988;stroke:#808080"/>
   <path d="m114.85 93.187v4.6333h5.4658v-4.6333h-2.7332z" style="fill:none;stroke-width:.85988;stroke:#808080"/>
  </g>
  <g id="svg-gamepad-btn-west" transform="translate(.63773)">
   <path id="svg-gamepad-btn-west-frame" d="m182.84 103.98a10.152 10.152 0 0 1-6.4688-12.784 10.152 10.152 0 0 1 12.758-6.5202 10.152 10.152 0 0 1 6.5715 12.732 10.152 10.152 0 0 1-12.705 6.6227z" style="fill-opacity:.5;fill:#809eff;stroke-width:1.6895;stroke:#808080"/>
   <text transform="matrix(1.302 0 0 1.302 -1011.2 -69.578)" style="fill:#809dff;font-family:Consolas;font-size:13.006px;font-variant-caps:normal;font-variant-east-asian:normal;font-variant-ligatures:normal;font-variant-numeric:normal;shape-inside:url(#rect17);stroke-width:.9332;stroke:#809eff;white-space:pre" xml:space="preserve"><tspan x="915.9668" y="130.10326">X
</tspan></text>
  </g>
  <g id="svg-gamepad-btn-north">
   <path id="svg-gamepad-btn-north-frame" d="m202.95 85.072a10.152 10.152 0 0 1-6.4688-12.784 10.152 10.152 0 0 1 12.758-6.5202 10.152 10.152 0 0 1 6.5715 12.732 10.152 10.152 0 0 1-12.705 6.6226z" style="fill-opacity:.5;fill:#fff980;stroke-width:1.6895;stroke:#808080"/>
   <text transform="matrix(1.302 0 0 1.302 -991.07 -88.392)" style="fill:#fff980;font-family:Consolas;font-size:13.006px;font-variant-caps:normal;font-variant-east-asian:normal;font-variant-ligatures:normal;font-variant-numeric:normal;shape-inside:url(#rect17-9);stroke-width:.9332;stroke:#fff880;white-space:pre" xml:space="preserve"><tspan x="915.9668" y="130.10326">Y
</tspan></text>
  </g>
  <g id="svg-gamepad-btn-east" transform="translate(-.54663)">
   <path id="svg-gamepad-btn-east-frame" d="m222.53 103.98a10.152 10.152 0 0 1-6.469-12.784 10.152 10.152 0 0 1 12.759-6.5202 10.152 10.152 0 0 1 6.5716 12.732 10.152 10.152 0 0 1-12.706 6.6227z" style="fill-opacity:.5;fill:#ff8280;stroke-width:1.6895;stroke:#808080"/>
   <text transform="matrix(1.302 0 0 1.302 -970.98 -69.201)" style="fill:#ff8280;font-family:Consolas;font-size:13.006px;font-variant-caps:normal;font-variant-east-asian:normal;font-variant-ligatures:normal;font-variant-numeric:normal;shape-inside:url(#rect17-9-5);stroke-width:.9332;stroke:#ff8280;white-space:pre" xml:space="preserve"><tspan x="915.9668" y="130.10326">B
</tspan></text>
  </g>
  <g id="svg-gamepad-btn-south" onclick="">
   <path id="svg-gamepad-btn-south-frame" d="m202.95 122.64a10.152 10.152 0 0 1-6.4688-12.784 10.152 10.152 0 0 1 12.758-6.5202 10.152 10.152 0 0 1 6.5715 12.732 10.152 10.152 0 0 1-12.705 6.6226z" style="fill-opacity:.5;fill:#80ff8c;stroke-width:1.6895;stroke:#808080"/>
   <text transform="matrix(1.302 0 0 1.302 -991.05 -50.977)" style="fill:#80ff8c;font-family:Consolas;font-size:13.006px;font-variant-caps:normal;font-variant-east-asian:normal;font-variant-ligatures:normal;font-variant-numeric:normal;shape-inside:url(#rect17-2);stroke-width:.9332;stroke:#80ff8b;white-space:pre" xml:space="preserve"><tspan x="915.9668" y="130.10326">A
</tspan></text>
  </g>
  <g>
   <path id="svg-gamepad-dpad-up" d="m91.685 116.89c-0.6648 0-1.1999 0.53513-1.1999 1.1999v11.247c0 0.14716 0.02792 0.28698 0.07596 0.41703 5.64e-4 2e-3 9.79e-4 3e-3 0.0016 5e-3l0.48214 0.59428 6.2947 7.767 6.3097-7.8941 0.23772-0.29766c0.0134-0.0236 0.026-0.0477 0.0377-0.0723 0.0749-0.15685 0.11678-0.33281 0.11678-0.51884v-11.247c0-0.6648-0.53512-1.1999-1.1999-1.1999z" style="fill-opacity:.50259;fill:#ff9c00;stroke-linejoin:round;stroke-miterlimit:0;stroke-width:1.815;stroke:#808080"/>
   <path id="svg-gamepad-dpad-down" d="m102.99 159.35c0.6648 0 1.1999-0.53513 1.1999-1.1999v-11.247c0-0.14716-0.0279-0.28698-0.0759-0.41703-5.7e-4 -2e-3 -9.8e-4 -3e-3 -2e-3 -5e-3l-0.48215-0.59428-6.2947-7.767-6.3097 7.8941-0.23772 0.29766c-0.0134 0.0236-0.026 0.0477-0.0377 0.0723-0.0749 0.15685-0.11678 0.33281-0.11678 0.51884v11.247c0 0.6648 0.53512 1.1999 1.1999 1.1999z" style="fill-opacity:.50259;fill:#ff9c00;stroke-linejoin:round;stroke-miterlimit:0;stroke-width:1.815;stroke:#808080"/>
   <path id="svg-gamepad-dpad-left" d="m76.109 143.77c0 0.6648 0.53513 1.1999 1.1999 1.1999h11.247c0.14716 0 0.28698-0.0279 0.41703-0.076 2e-3 -5.6e-4 3e-3 -9.8e-4 5e-3 -2e-3l0.59428-0.48214 7.767-6.2947-7.8941-6.3097-0.29766-0.23772c-0.0236-0.0134-0.0477-0.026-0.0723-0.0377-0.15685-0.0749-0.33281-0.11678-0.51884-0.11678h-11.247c-0.6648 0-1.1999 0.53512-1.1999 1.1999z" style="fill-opacity:.50259;fill:#ff9c00;stroke-linejoin:round;stroke-miterlimit:0;stroke-width:1.815;stroke:#808080"/>
   <path id="svg-gamepad-dpad-right" d="m118.57 132.46c0-0.6648-0.53513-1.1999-1.1999-1.1999h-11.247c-0.14716 0-0.28698 0.0279-0.41703 0.076-2e-3 5.6e-4 -3e-3 9.8e-4 -5e-3 2e-3l-0.59428 0.48214-7.767 6.2947 7.8941 6.3097 0.29766 0.23772c0.0236 0.0134 0.0477 0.026 0.0723 0.0377 0.15685 0.0749 0.33281 0.11678 0.51884 0.11678h11.247c0.6648 0 1.1999-0.53512 1.1999-1.1999z" style="fill-opacity:.50259;fill:#ff9c00;stroke-linejoin:round;stroke-miterlimit:0;stroke-width:1.815;stroke:#808080"/>
  </g>
 </g>
</svg>
