<?xml version="1.0" encoding="UTF-8" standalone="no"?>
<!-- Created with Inkscape (http://www.inkscape.org/) -->

<svg
   width="1024"
   height="1024"
   viewBox="0 0 270.93333 270.93333"
   version="1.1"
   id="svg1"
   inkscape:version="1.4.2 (f4327f4, 2025-05-13)"
   sodipodi:docname="ps_inkspace.svg"
   xml:space="preserve"
   xmlns:inkscape="http://www.inkscape.org/namespaces/inkscape"
   xmlns:sodipodi="http://sodipodi.sourceforge.net/DTD/sodipodi-0.dtd"
   xmlns="http://www.w3.org/2000/svg"
   xmlns:svg="http://www.w3.org/2000/svg"><sodipodi:namedview
     id="namedview1"
     pagecolor="#ffffff"
     bordercolor="#999999"
     borderopacity="1"
     inkscape:showpageshadow="2"
     inkscape:pageopacity="0"
     inkscape:pagecheckerboard="0"
     inkscape:deskcolor="#d1d1d1"
     inkscape:document-units="mm"
     inkscape:zoom="0.72604515"
     inkscape:cx="570.90113"
     inkscape:cy="503.41222"
     inkscape:window-width="1920"
     inkscape:window-height="1017"
     inkscape:window-x="-8"
     inkscape:window-y="-8"
     inkscape:window-maximized="1"
     inkscape:current-layer="layer1"
     showguides="true"><sodipodi:guide
       position="0,270.93333"
       orientation="0,1024"
       id="guide1"
       inkscape:locked="false" /><sodipodi:guide
       position="270.93333,270.93333"
       orientation="1024,0"
       id="guide2"
       inkscape:locked="false" /><sodipodi:guide
       position="270.93333,0"
       orientation="0,-1024"
       id="guide3"
       inkscape:locked="false" /><sodipodi:guide
       position="0,0"
       orientation="-1024,0"
       id="guide4"
       inkscape:locked="false" /><sodipodi:guide
       position="55.778606,197.78963"
       orientation="1,0"
       id="guide5"
       inkscape:locked="false" /><sodipodi:guide
       position="55.778606,177.26598"
       orientation="0,-1"
       id="guide8"
       inkscape:locked="false" /><sodipodi:guide
       position="214.26246,186.42598"
       orientation="1,0"
       id="guide9"
       inkscape:locked="false" /><sodipodi:guide
       position="196.60307,177.26598"
       orientation="1,0"
       id="guide10"
       inkscape:locked="false" /><sodipodi:guide
       position="231.92246,177.26598"
       orientation="-1,0"
       id="guide11"
       inkscape:locked="false"
       inkscape:label=""
       inkscape:color="rgb(0,134,229)" /><sodipodi:guide
       position="222.76246,194.92598"
       orientation="0,1"
       id="guide13"
       inkscape:locked="false"
       inkscape:label=""
       inkscape:color="rgb(0,134,229)" /><sodipodi:guide
       position="94.201839,142.29407"
       orientation="1,0"
       id="guide15"
       inkscape:locked="false" /><sodipodi:guide
       position="94.201839,142.29407"
       orientation="0,-1"
       id="guide16"
       inkscape:locked="false" /><sodipodi:guide
       position="135.38098,142.29407"
       orientation="1,0"
       id="guide17"
       inkscape:locked="false" /><sodipodi:guide
       position="176.38098,120.61125"
       orientation="-1,0"
       id="guide18"
       inkscape:locked="false"
       inkscape:label=""
       inkscape:color="rgb(0,134,229)" /><sodipodi:guide
       position="135.47209,215.72413"
       orientation="0,-1"
       id="guide6"
       inkscape:locked="false" /></sodipodi:namedview><defs
     id="defs1" /><g
     inkscape:label="图层 1"
     inkscape:groupmode="layer"
     id="layer1"
     style="opacity:1"><g
       id="svg-gamepad-rightstick-g"
       inkscape:label="svg-gamepad-rightstick-g"
       style="mix-blend-mode:darken;stroke-linejoin:miter;paint-order:normal"
       transform="translate(110.50594,34.875503)"><ellipse
         style="opacity:1;fill:#ff9c00;fill-opacity:0.50259066;stroke:#808080;stroke-width:1.74296;stroke-linejoin:miter;stroke-dasharray:none;stroke-opacity:1;paint-order:normal"
         id="svg-gamepad-rightstick"
         cx="65.875038"
         cy="93.828178"
         inkscape:label="svg-gamepad-rightstick"
         rx="10.049"
         ry="10.049271" /><circle
         style="display:inline;opacity:1;fill:#ff9c00;fill-opacity:0.50259066;stroke:#808080;stroke-width:2.543;stroke-linejoin:miter;stroke-dasharray:none;stroke-opacity:1;paint-order:normal"
         id="svg-gamepad-btn-rightstick"
         cx="65.875038"
         cy="93.828178"
         r="16.393642"
         inkscape:label="svg-gamepad-btn-rightstick" /></g><g
       id="svg-gamepad-leftstick-g"
       inkscape:label="svg-gamepad-leftstick-g"
       transform="translate(28.326802,34.811083)"
       style="mix-blend-mode:darken;stroke-linejoin:miter;paint-order:normal"><circle
         style="opacity:1;fill:#ff9c00;fill-opacity:0.50259066;stroke:#808080;stroke-width:1.74296;stroke-linejoin:miter;stroke-dasharray:none;stroke-opacity:1;paint-order:normal"
         id="svg-gamepad-leftstick"
         cx="65.875038"
         cy="93.828178"
         r="10.049271"
         inkscape:label="svg-gamepad-leftstick" /><ellipse
         style="fill:#ff9c00;fill-opacity:0.50259066;stroke:#808080;stroke-width:2.543;stroke-linejoin:miter;stroke-dasharray:none;stroke-opacity:1;paint-order:normal"
         id="svg-gamepad-btn-leftstick"
         cx="65.875038"
         cy="93.828178"
         inkscape:label="svg-gamepad-btn-leftstick"
         rx="16.393999"
         ry="16.393642" /></g><path
       style="opacity:1;fill:none;stroke:#808080;stroke-width:2;stroke-opacity:1;stroke-dasharray:none"
       d="m 41.224694,56.165797 c 0,0 -7.151687,6.878373 -12.982363,19.086348 -5.830675,12.207976 -10.203681,29.517795 -10.203681,29.517795 0,0 -7.288343,25.69141 -10.2036806,51.20061 -2.9153377,25.5092 -0.7288345,34.07301 4.0085886,46.09877 4.737423,12.02577 27.14908,16.76319 36.441717,6.3773 9.292638,-10.38589 8.563803,-11.29693 8.563803,-11.29693 0,0 5.284049,-9.65706 6.923926,-14.75889 1.63988,-5.10184 9.657056,-28.06013 9.657056,-28.06013 l 2.004296,-2.73313 2.186503,-0.72883 1.639877,0.18221 1.09325,1.27546 c 0,0 3.279754,4.00859 13.665645,4.73742 10.385889,0.72883 17.127609,-6.74172 17.127609,-6.74172 h 48.46748 c 0,0 5.10184,6.3773 15.48773,6.74172 10.38589,0.36442 16.76319,-6.01288 16.76319,-6.01288 0,0 4.55522,-0.18221 6.19509,5.10184 1.63988,5.28405 10.27505,31.95499 17.74782,43.9372 7.47278,11.98221 17.90889,13.14178 17.90889,13.14178 0,0 10.0496,2.31913 18.81078,-4.3806 8.76118,-6.69973 13.52828,-17.90889 11.46684,-44.06359 -2.06146,-26.15471 -14.00488,-69.674669 -14.00488,-69.674669 0,0 -3.82638,-13.301226 -7.65276,-21.500613 C 238.51104,65.412884 231.2227,57.122392 231.2227,57.122392 l -1.82209,-1.457668 c 0,0 -6.3773,-3.006442 -17.85644,-3.370861 -11.47914,-0.364416 -17.49202,2.915338 -17.49202,2.915338 H 76.892025 c 0,0 -10.021475,-2.368711 -17.492025,-2.550919 -7.470553,-0.182208 -12.891257,1.138803 -18.175306,3.507515 z"
       id="svg-gamepad_base_frame"
       sodipodi:nodetypes="cscssscscccccsccscsscsscsccsccsc" /><g
       id="Dpad"
       inkscape:label="Dpad"
       style="stroke:#808080;stroke-opacity:1"><circle
         style="opacity:1;fill:none;stroke:#808080;stroke-width:1;stroke-linejoin:round;stroke-dasharray:none;stroke-opacity:1"
         id="svg-gamepad-dpad-frame"
         cx="55.778606"
         cy="93.667351"
         r="27.6" /><path
         d="m 51.195325,73.143856 c -0.937888,0 -1.693437,0.755032 -1.693437,1.69292 v 9.030456 c 0,0.562551 0.273692,1.056743 0.693498,1.364258 l 5.597074,5.597074 5.575887,-5.598107 c 0.417068,-0.30778 0.68678,-0.802827 0.68678,-1.363225 v -9.030456 c 0,-0.937888 -0.755032,-1.69292 -1.69292,-1.69292 z"
         style="opacity:1;fill:#ff9c00;stroke:#808080;stroke-width:1.408;stroke-dasharray:none;fill-opacity:0.50259066;stroke-opacity:1"
         id="svg-gamepad-dpad-up" /><path
         d="m 76.260094,89.070216 c 0,-0.937888 -0.755032,-1.693437 -1.69292,-1.693437 h -9.030456 c -0.562551,0 -1.056743,0.273692 -1.364258,0.693498 l -5.597074,5.597074 5.598107,5.575887 c 0.30778,0.417068 0.802827,0.68678 1.363225,0.68678 h 9.030456 c 0.937888,0 1.69292,-0.755032 1.69292,-1.69292 z"
         style="fill:#ff9c00;stroke:#808080;stroke-width:1.408;stroke-dasharray:none;fill-opacity:0.50259066;stroke-opacity:1"
         id="svg-gamepad-dpad-right" /><path
         d="m 60.375746,114.03279 c 0.937888,0 1.693437,-0.75504 1.693437,-1.69292 v -9.03046 c 0,-0.56255 -0.273692,-1.05674 -0.693498,-1.36425 l -5.597078,-5.597081 -5.57588,5.598111 c -0.41707,0.30778 -0.68678,0.80283 -0.68678,1.36322 v 9.03046 c 0,0.93788 0.75503,1.69292 1.69292,1.69292 z"
         style="fill:#ff9c00;stroke:#808080;stroke-width:1.408;stroke-dasharray:none;fill-opacity:0.50259066;stroke-opacity:1"
         id="svg-gamepad-dpad-down" /><path
         d="m 35.165232,98.264486 c 0,0.937888 0.755032,1.693437 1.69292,1.693437 h 9.030456 c 0.562551,0 1.056743,-0.273692 1.364258,-0.693498 l 5.597078,-5.597074 -5.598111,-5.575887 c -0.30778,-0.417068 -0.802827,-0.68678 -1.363225,-0.68678 h -9.030456 c -0.937888,0 -1.69292,0.755032 -1.69292,1.69292 z"
         style="fill:#ff9c00;stroke:#808080;stroke-width:1.408;stroke-dasharray:none;fill-opacity:0.50259066;stroke-opacity:1"
         id="svg-gamepad-dpad-left" /></g><g
       id="g11"
       inkscape:label="Btn"><circle
         style="fill:none;stroke:#808080;stroke-width:1;stroke-linejoin:round;stroke-dasharray:none;stroke-opacity:1"
         id="svg-gamepad-btn-frame"
         cx="214.26247"
         cy="93.667351"
         r="27.6"
         inkscape:label="svg-gamepad-btn-frame" /><g
         id="svg-gamepad-btn-west"
         style="display:inline;stroke:#808080;stroke-opacity:1"><circle
           style="opacity:1;fill:#ff697b;stroke:#808080;stroke-width:1.4;stroke-linejoin:round;stroke-dasharray:none;stroke-opacity:1;fill-opacity:0.5"
           id="svg-gamepad-btn-west-frame"
           cx="196.60307"
           cy="93.667351"
           r="8.5" /><rect
           style="display:inline;opacity:1;fill:none;fill-opacity:0.504202;stroke:#ff697b;stroke-width:1.383;stroke-linejoin:round;stroke-dasharray:none;stroke-opacity:1"
           id="rect4"
           width="8.5839996"
           height="8.5839996"
           x="192.31107"
           y="89.375351"
           rx="0.11622287" /></g><g
         id="svg-gamepad-btn-south"
         style="display:inline;stroke:#808080;stroke-opacity:1"
         transform="translate(14.00943,2.3805647)"><circle
           style="display:inline;opacity:1;fill:#1896f9;fill-opacity:0.5;stroke:#808080;stroke-width:1.4;stroke-linejoin:round;stroke-dasharray:none;stroke-opacity:1"
           id="svg-gamepad-btn-south-frame"
           cx="200.07083"
           cy="108.94678"
           r="8.5" /><path
           style="fill:#000000;fill-opacity:1;stroke:#1896f9;stroke-width:1.463;stroke-linejoin:round;stroke-dasharray:none;stroke-opacity:1"
           d="m 195.85798,104.66315 8.79011,8.79012"
           id="path7" /><path
           style="display:inline;fill:#000000;fill-opacity:1;stroke:#1896f9;stroke-width:1.463;stroke-linejoin:round;stroke-dasharray:none;stroke-opacity:1"
           d="m 204.64809,104.66315 -8.79011,8.79012"
           id="path7-5" /></g><g
         id="svg-gamepad-btn-north"
         transform="translate(17.65939,-17.66)"
         style="display:inline;stroke:#808080;stroke-opacity:1"><circle
           style="display:inline;opacity:1;fill:#00c4d7;fill-opacity:0.5;stroke:#808080;stroke-width:1.4;stroke-linejoin:round;stroke-dasharray:none;stroke-opacity:1"
           id="svg-gamepad-btn-north-frame"
           cx="196.60307"
           cy="93.667351"
           r="8.5" /><path
           sodipodi:type="star"
           style="opacity:1;fill:none;fill-opacity:0.504425;stroke:#00c4d7;stroke-width:4.16045;stroke-linejoin:round;stroke-dasharray:none;stroke-opacity:1"
           id="path3"
           inkscape:flatsided="false"
           sodipodi:sides="3"
           sodipodi:cx="146.31351"
           sodipodi:cy="24.051535"
           sodipodi:r1="19.763544"
           sodipodi:r2="9.881772"
           sodipodi:arg1="0.96233622"
           sodipodi:arg2="2.0095338"
           inkscape:rounded="0"
           inkscape:randomized="0"
           d="M 157.61044,40.2681 142.11576,32.997391 126.62108,25.726683 140.66504,15.943252 154.709,6.1598212 156.15972,23.213961 Z"
           inkscape:transform-center-x="-0.94932358"
           inkscape:transform-center-y="-2.0701863"
           transform="matrix(0.25159324,-0.11468045,0.11468045,0.25159324,156.97292,104.49311)" /></g><g
         id="svg-gamepad-btn-east"
         transform="translate(26.444847,-8.467351)"
         style="display:inline;stroke:#808080;stroke-opacity:1"><circle
           style="display:inline;opacity:1;fill:#ff4800;fill-opacity:0.50420171;stroke:#808080;stroke-width:1.4;stroke-linejoin:round;stroke-dasharray:none;stroke-opacity:1"
           id="svg-gamepad-btn-east-frame"
           cx="205.47762"
           cy="102.1347"
           r="8.5" /><circle
           style="opacity:1;fill:none;fill-opacity:0.5;stroke:#ff2a00;stroke-width:1.348;stroke-linejoin:round;stroke-dasharray:none;stroke-opacity:0.49579832"
           id="path4"
           cx="231.92247"
           cy="93.667351"
           r="4.6382737"
           transform="translate(-26.444847,8.467351)" /></g></g><path
       d="m 85.072843,61.641643 a 3.8475599,2.4231727 0 0 0 -3.847382,2.423279 v 0.003 8.994343 0.003 a 3.8475599,2.4231727 0 0 0 3.847382,2.423279 3.8475599,2.4231727 0 0 0 3.847383,-2.423279 v -9.000322 a 3.8475599,2.4231727 0 0 0 -3.847383,-2.423279 z"
       style="opacity:1;fill:#ff9c00;stroke:#808080;stroke-width:1.03766;stroke-linejoin:round;fill-opacity:0.50259066;stroke-opacity:1"
       id="svg-gamepad-btn-share"
       inkscape:label="svg-gamepad-btn-share" /><path
       d="m 185.43099,61.64162 a 3.8475599,2.4231727 0 0 0 -3.84738,2.423279 v 0.003 8.994343 0.003 a 3.8475599,2.4231727 0 0 0 3.84738,2.423279 3.8475599,2.4231727 0 0 0 3.84739,-2.423279 V 64.06492 a 3.8475599,2.4231727 0 0 0 -3.84739,-2.423279 z"
       style="fill:#ff9c00;stroke:#808080;stroke-width:1.03766;stroke-linejoin:round;fill-opacity:0.50259066;stroke-opacity:1"
       id="svg-gamepad-btn-select"
       inkscape:label="svg-gamepad-btn-select" /><path
       style="opacity:1;fill:#ff9c00;stroke:#808080;stroke-width:1.408;stroke-linejoin:round;stroke-dasharray:none;stroke-opacity:1;fill-opacity:0.50259066"
       d="m 76.892025,55.209201 c 0,0 -0.682617,-3.672829 -3.96806,-4.767977 -3.285445,-1.09515 -9.212127,-1.674934 -11.917785,-1.868193 -2.705661,-0.193263 -11.338002,0.966306 -12.561991,1.352827 -1.223989,0.386525 -3.671967,1.03073 -5.862262,2.705661 -2.190297,1.674932 -1.357233,3.534278 -1.357233,3.534278 0,0 11.741327,-7.333361 35.667331,-0.956596 z"
       id="svg-gamepad-btn-lb" /><path
       style="fill:#ff9c00;stroke:#808080;stroke-width:1.408;stroke-linejoin:round;stroke-dasharray:none;stroke-opacity:1;fill-opacity:0.50259066"
       d="m 193.73328,54.708128 c 0,0 0.68262,-3.672829 3.96806,-4.767977 3.28544,-1.09515 9.21213,-1.674934 11.91778,-1.868193 2.70567,-0.193263 11.33801,0.966306 12.56199,1.352827 1.22399,0.386525 3.67197,1.03073 5.86227,2.705661 2.19029,1.674932 1.35723,3.534278 1.35723,3.534278 0,0 -11.74133,-7.333361 -35.66733,-0.956596 z"
       id="svg-gamepad-btn-rb" /><g
       id="svg-gamepad-btn-guide-g"
       transform="matrix(0.58978352,0,0,0.60883757,55.547004,48.897686)"
       inkscape:label="svg-gamepad-btn-guide-g"><g
         id="svg-gamepad-btn-guide-icon"
         transform="matrix(0.01344262,0,0,0.01344262,127.57064,123.30321)"
         style="display:inline"><path
           d="M 448.15059,955.93412 643.31294,1024 V 213.83529 c 0,0 3.01177,-51.80235 37.94824,-42.1647 a 60.235294,60.235294 0 0 1 39.15294,48.79059 V 573.44 c 0,0 128.30117,77.70353 198.17412,-42.16471 A 369.84471,369.84471 0 0 0 881.24235,180.70588 C 783.05882,65.656471 448.15059,0 448.15059,0 Z M 411.40706,580.06588 V 704.15059 L 204.19765,788.48 c 0,0 -33.73177,14.45647 -22.88941,30.72 10.84235,16.26353 67.46352,17.46824 93.96705,12.64941 26.50353,-4.81882 136.13177,-48.79059 136.13177,-48.79059 V 898.10823 A 695.11529,695.11529 0 0 1 249.37412,910.15529 C 177.09176,903.52941 60.235294,877.02588 24.094118,837.87294 -12.047058,798.72 0,769.20471 16.263529,751.13412 a 291.53882,291.53882 0 0 1 69.872942,-42.76706 z"
           p-id="5254"
           id="path1"
           style="fill:#7e7e7e;fill-opacity:1" /><path
           d="m 681.86353,676.44235 a 615.60471,615.60471 0 0 1 257.80706,-42.1647 c 64.45181,0 268.64941,46.98353 264.43291,120.47059 0,49.39294 -107.8211,92.15999 -107.8211,92.15999 L 681.26118,1009.5435 V 883.04941 l 308.4047,-120.47059 c 0,0 44.57412,-23.49176 37.94822,-32.52705 -19.8776,-28.31059 -71.67998,-20.48 -105.41175,-15.66118 -33.73176,4.81882 -240.94117,92.16 -240.94117,92.16 z"
           p-id="5255"
           id="path2"
           style="fill:#7e7e7e;fill-opacity:1" /></g><circle
         style="opacity:1;fill:#ff9c00;stroke:#7e7e7e;stroke-width:0.874632;stroke-linejoin:round;stroke-dasharray:none;stroke-opacity:1;fill-opacity:0.5"
         id="svg-gamepad-btn-guide"
         cx="135.46666"
         cy="128.56233"
         r="6.9043279"
         transform="matrix(1.6955374,0,0,1.6424742,-94.182021,-80.313188)"
         inkscape:label="svg-gamepad-btn-guide" /></g><path
       style="fill:#949494;stroke:#808080;stroke-width:1.408;stroke-linejoin:round;fill-opacity:0.49740931;stroke-opacity:1"
       d="m 94.201839,55.209201 v 38.45815 c 0,0 -1.834219,7.601139 7.601141,7.601139 9.43537,0 66.83107,0 66.83107,0 0,0 7.60115,0.9748 7.60115,-7.601139 0,-8.575939 0,-38.45815 0,-38.45815 z"
       id="touchpad" /></g></svg>
