<?xml version="1.0" encoding="UTF-8" standalone="no"?>
<!-- Created with Inkscape (http://www.inkscape.org/) -->

<svg
   width="1024"
   height="1024"
   viewBox="0 0 270.93333 270.93334"
   version="1.1"
   id="svg1"
   sodipodi:docname="xbox_inkspace.svg"
   inkscape:version="1.4.2 (f4327f4, 2025-05-13)"
   xml:space="preserve"
   inkscape:export-filename="..\controller\xbox.svg"
   inkscape:export-xdpi="96"
   inkscape:export-ydpi="96"
   xmlns:inkscape="http://www.inkscape.org/namespaces/inkscape"
   xmlns:sodipodi="http://sodipodi.sourceforge.net/DTD/sodipodi-0.dtd"
   xmlns="http://www.w3.org/2000/svg"
   xmlns:svg="http://www.w3.org/2000/svg"
   xmlns:rdf="http://www.w3.org/1999/02/22-rdf-syntax-ns#"
   xmlns:cc="http://creativecommons.org/ns#"
   xmlns:dc="http://purl.org/dc/elements/1.1/"><sodipodi:namedview
     id="namedview1"
     pagecolor="#ffffff"
     bordercolor="#999999"
     borderopacity="1"
     inkscape:showpageshadow="2"
     inkscape:pageopacity="0"
     inkscape:pagecheckerboard="false"
     inkscape:deskcolor="#d1d1d1"
     inkscape:document-units="mm"
     inkscape:zoom="0.25669573"
     inkscape:cx="821.98485"
     inkscape:cy="21.426145"
     inkscape:window-width="1920"
     inkscape:window-height="1017"
     inkscape:window-x="-8"
     inkscape:window-y="-8"
     inkscape:window-maximized="1"
     inkscape:current-layer="layer1"
     showguides="true"
     showgrid="true"><sodipodi:guide
       position="121.28884,144.0454"
       orientation="0,1024"
       id="guide12"
       inkscape:locked="false" /><sodipodi:guide
       position="135.46667,102.92292"
       orientation="1024,0"
       id="guide13"
       inkscape:locked="false" /><sodipodi:guide
       position="270.93334,-32.543765"
       orientation="0,-1024"
       id="guide14"
       inkscape:locked="false" /><sodipodi:guide
       position="116.12342,149.10894"
       orientation="-1024,0"
       id="guide15"
       inkscape:locked="false" /><sodipodi:guide
       position="154.79667,151.0454"
       orientation="-1,0"
       id="guide2"
       inkscape:locked="false"
       inkscape:label=""
       inkscape:color="rgb(0,134,229)" /><sodipodi:guide
       position="270.93333,270.93333"
       orientation="1,0"
       id="guide16"
       inkscape:locked="false" /><sodipodi:guide
       position="97.339329,121.53107"
       orientation="1,0"
       id="guide23"
       inkscape:locked="false" /><sodipodi:guide
       position="103.97463,100.27231"
       orientation="0,-1"
       id="guide24"
       inkscape:locked="false" /><sodipodi:guide
       position="254.07432,310.61634"
       orientation="0,-1"
       id="guide1"
       inkscape:locked="false" /><sodipodi:guide
       position="90.011044,242.5088"
       orientation="1,0"
       id="guide3"
       inkscape:locked="false" /><sodipodi:guide
       position="180.86667,235.94929"
       orientation="-1,0"
       id="guide4"
       inkscape:locked="false"
       inkscape:label=""
       inkscape:color="rgb(0,134,229)" /><sodipodi:guide
       position="254.07432,310.61634"
       orientation="0,-1"
       id="guide6"
       inkscape:locked="false" /><sodipodi:guide
       position="32.797546,250.16156"
       orientation="1,0"
       id="guide7"
       inkscape:locked="false" /><sodipodi:guide
       position="254.07432,310.61634"
       orientation="0,-1"
       id="guide8"
       inkscape:locked="false" /><sodipodi:guide
       position="229.19103,228.76683"
       orientation="1,0"
       id="guide5"
       inkscape:locked="false" /><sodipodi:guide
       position="229.19104,231.48517"
       orientation="0,-1"
       id="guide9"
       inkscape:locked="false" /><sodipodi:guide
       position="40.645383,229.17003"
       orientation="1,0"
       id="guide10"
       inkscape:locked="false" /></sodipodi:namedview><defs
     id="defs1"><inkscape:path-effect
       effect="fillet_chamfer"
       id="path-effect20"
       is_visible="true"
       lpeversion="1"
       nodesatellites_param="F,0,0,1,0,0,0,1 @ F,0,0,1,0,0,0,1 @ F,0,0,1,0,0,0,1 @ F,0,0,1,0,0,0,1"
       radius="0"
       unit="px"
       method="auto"
       mode="F"
       chamfer_steps="1"
       flexible="false"
       use_knot_distance="true"
       apply_no_radius="true"
       apply_with_radius="true"
       only_selected="false"
       hide_knots="false" /><rect
       x="915.96771"
       y="118.81772"
       width="71.582802"
       height="85.704582"
       id="rect17" /><rect
       x="915.96771"
       y="118.81772"
       width="10.568518"
       height="21.222969"
       id="rect17-9" /><rect
       x="915.96771"
       y="118.81772"
       width="10.568518"
       height="21.222969"
       id="rect17-9-5" /><rect
       x="915.96771"
       y="118.81772"
       width="71.582802"
       height="85.704582"
       id="rect17-2" /></defs><g
     inkscape:label="图层 1"
     inkscape:groupmode="layer"
     id="layer1"
     style="opacity:1"
     transform="translate(-8.3333297e-7,1.7082056)"><g
       id="svg-gamepad_base_frame"
       inkscape:label="svg-gamepad_base_frame"
       style="opacity:1"><path
         style="opacity:1;mix-blend-mode:darken;fill:none;fill-opacity:1;stroke:#808080;stroke-width:2.065;stroke-linejoin:miter;stroke-dasharray:none;stroke-opacity:1;paint-order:normal"
         d="m 41.907975,62.133127 c 0,0 -7.106134,3.826381 -11.114725,15.66994 C 26.784662,89.646624 10.203681,134.65215 7.6527606,149.95767 5.1018405,165.26319 0,192.95889 6.0128835,207.35337 c 6.0128835,14.39448 20.7717785,20.04295 20.7717785,20.04295 0,0 2.73313,1.63987 8.746011,-3.27976 6.012884,-4.91963 31.157669,-35.89509 31.157669,-35.89509 0,0 9.474848,-12.39018 21.318405,-12.39018 11.84356,0 90.375463,0 90.375463,0 0,0 10.38589,-0.91105 17.49202,4.19079 7.10614,5.10184 37.35276,41.90798 37.35276,41.90798 l 3.82638,3.82638 c 0,0 2.73313,6.01288 14.94111,-2.55092 12.20797,-8.5638 13.80435,-18.86381 13.80435,-18.86381 0,0 4.89595,-9.79191 0.51538,-37.62155 -4.38061,-27.82964 -25.25284,-95.471126 -32.72561,-101.011287 -7.47277,-5.54016 -13.57173,-9.953045 -27.60179,-13.41501 -14.03006,-3.461961 -19.31411,-3.18865 -19.31411,-3.18865 0,0 -4.1908,0 -6.74172,1.093254 -2.55092,1.09325 -89.033705,0 -89.033705,0 0,0 -1.610513,-1.625436 -10.242854,-0.787972 -8.632344,0.837467 -27.889134,4.444196 -38.746446,12.722632 z"
         id="path18"
         inkscape:label="xbox_base_frame" /><rect
         style="opacity:1;mix-blend-mode:darken;fill:none;fill-opacity:1;stroke:#808080;stroke-width:2.0809;stroke-linejoin:miter;stroke-dasharray:none;stroke-opacity:1;paint-order:normal"
         id="rect19"
         width="75.584877"
         height="1.5392524"
         x="97.34063"
         y="47.196785"
         ry="0" /></g><path
       style="opacity:1;mix-blend-mode:darken;fill:#ff9c00;fill-opacity:0.497409;stroke:#808080;stroke-width:2.065;stroke-linejoin:miter;stroke-dasharray:none;stroke-opacity:1;paint-order:normal"
       d="m 42.646348,60.168713 c 0,0 3.221022,-7.859297 14.04366,-12.626412 10.822638,-4.767114 19.841503,-5.668999 19.841503,-5.668999 0,0 3.994068,-0.901888 8.374661,-0.773047 4.38059,0.128842 10.898109,5.260373 10.898109,5.260373 l 0.05337,2.856607 H 91.34822 c 0,0 -15.847433,-5.54016 -48.70187,10.951478 z"
       id="svg-gamepad-btn-lb"
       sodipodi:nodetypes="cscscccc"
       inkscape:label="svg-gamepad-btn-lb" /><path
       style="opacity:1;mix-blend-mode:darken;fill:#ff9c00;fill-opacity:0.497409;stroke:#808080;stroke-width:2.065;stroke-linejoin:miter;stroke-dasharray:none;stroke-opacity:1;paint-order:normal"
       d="m 227.65203,60.571914 c 0,0 -3.22103,-7.85929 -14.04367,-12.62641 -10.82264,-4.76711 -19.8415,-5.669 -19.8415,-5.669 0,0 -3.99407,-0.901884 -8.37466,-0.773043 -4.38059,0.128842 -10.89811,5.260373 -10.89811,5.260373 l -0.0534,2.85661 h 4.50943 c 0,0 15.84743,-5.54016 48.70187,10.95147 z"
       id="svg-gamepad-btn-rb"
       sodipodi:nodetypes="cscscccc"
       inkscape:label="svg-gamepad-btn-rb" /><g
       id="svg-gamepad-leftstick-g"
       inkscape:label="svg-gamepad-leftstick-g"
       style="opacity:1;mix-blend-mode:darken;stroke-linejoin:miter;paint-order:normal"><ellipse
         style="opacity:1;fill:#ff9c00;fill-opacity:0.502591;stroke:#808080;stroke-width:1.74296;stroke-linejoin:miter;stroke-dasharray:none;stroke-opacity:1;paint-order:normal"
         id="svg-gamepad-leftstick"
         cx="65.875038"
         cy="93.828178"
         inkscape:label="svg-gamepad-leftstick"
         rx="10.049"
         ry="10.049271" /><circle
         style="display:inline;opacity:1;fill:#ff9c00;fill-opacity:0.502591;stroke:#808080;stroke-width:2.543;stroke-linejoin:miter;stroke-dasharray:none;stroke-opacity:1;paint-order:normal"
         id="svg-gamepad-btn-leftstick"
         cx="65.875038"
         cy="93.828178"
         r="16.393642"
         inkscape:label="svg-gamepad-btn-leftstick" /></g><g
       id="svg-gamepad-rightstick-g"
       inkscape:label="svg-gamepad-rightstick-g"
       transform="translate(106.16821,41.638483)"
       style="opacity:1;mix-blend-mode:darken;stroke-linejoin:miter;paint-order:normal"><circle
         style="opacity:1;fill:#ff9c00;fill-opacity:0.502591;stroke:#808080;stroke-width:1.74296;stroke-linejoin:miter;stroke-dasharray:none;stroke-opacity:1;paint-order:normal"
         id="svg-gamepad-rightstick"
         cx="65.875038"
         cy="93.828178"
         r="10.049271"
         inkscape:label="svg-gamepad-rightstick" /><circle
         style="fill:#ff9c00;fill-opacity:0.502591;stroke:#808080;stroke-width:2.543;stroke-linejoin:miter;stroke-dasharray:none;stroke-opacity:1;paint-order:normal"
         id="svg-gamepad-btn-rightstick"
         cx="65.875038"
         cy="93.828178"
         r="16.393642"
         inkscape:label="svg-gamepad-btn-rightstick" /></g><path
       d="m 128.13507,74.364735 a 11.093225,11.093225 0 0 0 7.3316,2.755477 11.105482,11.105482 0 0 0 7.33718,-2.755477 c 1.74264,-1.774959 -4.00787,-8.085933 -7.33718,-10.600739 -3.32596,2.514806 -9.08094,8.82578 -7.33383,10.600739 z m 10.3623,-13.376274 c 2.32092,2.749909 6.9483,9.576764 5.64132,11.989064 a 11.088768,11.088768 0 0 0 2.47024,-6.996223 11.095453,11.095453 0 0 0 -3.31483,-7.925479 c 0,0 -0.0256,-0.02006 -0.0758,-0.03901 a 0.76435839,0.76435839 0 0 0 -0.26072,-0.04235 c -0.55043,0 -1.84405,0.403349 -4.46247,3.013979 z m -10.78013,-2.970524 c -0.0535,0.01895 -0.0758,0.0379 -0.0802,0.03901 a 11.101024,11.101024 0 0 0 -3.3126,7.925484 c 0,2.65074 0.92703,5.08198 2.47024,6.995106 -1.29919,-2.420097 3.32485,-9.241383 5.64689,-11.987947 -2.61843,-2.612858 -3.91427,-3.013979 -4.46247,-3.013979 a 0.67299194,0.67299194 0 0 0 -0.26073,0.04346 v -0.002 z m 7.74943,0.115882 c 0,0 -2.7343,-1.600027 -4.86916,-1.675794 -0.83901,-0.03007 -1.35155,0.274096 -1.41284,0.314211 1.99224,-1.337074 4.10927,-1.936524 6.26863,-1.936524 h 0.0134 c 2.16716,0 4.27639,0.59945 6.28199,1.935407 -0.0624,-0.04235 -0.57048,-0.345406 -1.4106,-0.314211 -2.13597,0.07577 -4.87139,1.671337 -4.87139,1.671337 v 0.0045 z"
       p-id="7437"
       id="svg-gamepad-btn-guide"
       style="opacity:1;mix-blend-mode:darken;fill:#ff9c00;fill-opacity:0.5;stroke:#808080;stroke-width:0.626;stroke-linejoin:miter;stroke-dasharray:none;stroke-opacity:1;paint-order:normal"
       inkscape:label="svg-gamepad-btn-guide" /><g
       id="svg-gamepad-btn-select-g"
       inkscape:label="svg-gamepad-btn-select-g"
       style="opacity:1;fill:none;fill-opacity:0"><path
         style="display:inline;fill:#ff9c00;fill-opacity:0.504425;stroke:#808080;stroke-width:1.165;stroke-dasharray:none;stroke-opacity:1"
         id="svg-gamepad-btn-select"
         sodipodi:type="arc"
         sodipodi:cx="154.79668"
         sodipodi:cy="94.344185"
         sodipodi:rx="7"
         sodipodi:ry="7"
         sodipodi:start="1.8897775"
         sodipodi:end="1.8736812"
         sodipodi:arc-type="chord"
         d="m 152.60148,100.99107 a 7,7 0 0 1 -4.46047,-8.815315 7,7 0 0 1 8.7973,-4.49591 7,7 0 0 1 4.53127,8.779134 7,7 0 0 1 -8.76083,4.566561 z"
         inkscape:label="svg-gamepad-btn-select"
         sodipodi:open="true" /><rect
         style="opacity:1;fill:none;fill-opacity:0;stroke:#808080;stroke-width:1;stroke-dasharray:none;stroke-opacity:1"
         id="rect16"
         width="7.021831"
         height="0.35431257"
         x="151.28575"
         y="91.187164" /><rect
         style="opacity:1;fill:none;fill-opacity:0;stroke:#808080;stroke-width:1;stroke-dasharray:none;stroke-opacity:1"
         id="rect16-2"
         width="7.021831"
         height="0.35431257"
         x="151.28575"
         y="93.207664" /><rect
         style="opacity:1;fill:none;fill-opacity:0;stroke:#808080;stroke-width:1;stroke-dasharray:none;stroke-opacity:1"
         id="rect16-6"
         width="7.021831"
         height="0.35431257"
         x="151.28575"
         y="95.193192" /><rect
         style="opacity:1;fill:none;fill-opacity:0;stroke:#808080;stroke-width:1;stroke-dasharray:none;stroke-opacity:1"
         id="rect16-1"
         width="7.021831"
         height="0.35431257"
         x="151.28575"
         y="97.275345" /></g><g
       id="svg-gamepad-btn-share-g"
       inkscape:label="svg-gamepad-btn-share-g"
       style="opacity:1;fill:none;fill-opacity:0.497409"><path
         style="fill:#ff9c00;fill-opacity:0.504425;stroke:#808080;stroke-width:1.165;stroke-dasharray:none;stroke-opacity:1"
         id="svg-gamepad-btn-share"
         sodipodi:type="arc"
         sodipodi:cx="116.12342"
         sodipodi:cy="94.344185"
         sodipodi:rx="7"
         sodipodi:ry="7"
         sodipodi:start="1.8897775"
         sodipodi:end="1.8736812"
         sodipodi:arc-type="chord"
         d="m 113.92823,100.99107 a 7,7 0 0 1 -4.46048,-8.815315 7,7 0 0 1 8.7973,-4.49591 7,7 0 0 1 4.53127,8.779134 7,7 0 0 1 -8.76082,4.566561 z"
         inkscape:label="svg-gamepad-btn-share"
         sodipodi:open="true" /><path
         d="m 112.11529,90.869922 v 4.63331 h 2.73317 v -2.31666 h 2.73265 v -2.31665 z"
         style="opacity:1;fill:none;fill-opacity:0.497409;stroke:#808080;stroke-width:0.859878;stroke-opacity:1"
         id="path11" /><path
         d="m 114.84846,93.186572 v 2.31666 2.31665 h 5.46581 v -4.63331 h -2.73316 z"
         style="fill:none;fill-opacity:0.497409;stroke:#808080;stroke-width:0.859878;stroke-opacity:1"
         id="path10" /></g><g
       id="svg-gamepad-btn-west"
       inkscape:label="svg-gamepad-btn-west"
       transform="translate(0.63773008)"
       style="opacity:1"><path
         style="opacity:1;fill:#809eff;fill-opacity:0.5;stroke:#808080;stroke-width:1.68954;stroke-dasharray:none;stroke-opacity:1"
         id="svg-gamepad-btn-west-frame"
         sodipodi:type="arc"
         sodipodi:cx="186.0204"
         sodipodi:cy="94.344185"
         sodipodi:rx="10.15173"
         sodipodi:ry="10.15173"
         sodipodi:start="1.8897775"
         sodipodi:end="1.8736812"
         sodipodi:arc-type="chord"
         d="m 182.83683,103.98381 a 10.15173,10.15173 0 0 1 -6.46879,-12.784384 10.15173,10.15173 0 0 1 12.75825,-6.52018 10.15173,10.15173 0 0 1 6.57147,12.731913 10.15173,10.15173 0 0 1 -12.70537,6.622651 z"
         sodipodi:open="true"
         inkscape:label="svg-gamepad-btn-west-frame" /><text
         xml:space="preserve"
         transform="matrix(1.301978,0,0,1.301978,-1011.2263,-69.577632)"
         id="text16"
         style="font-style:normal;font-variant:normal;font-weight:normal;font-stretch:normal;font-size:13.0059px;font-family:Consolas;-inkscape-font-specification:'Consolas, Normal';font-variant-ligatures:normal;font-variant-caps:normal;font-variant-numeric:normal;font-variant-east-asian:normal;text-align:start;writing-mode:lr-tb;direction:ltr;white-space:pre;shape-inside:url(#rect17);display:inline;opacity:1;fill:#809dff;fill-opacity:1;stroke:#809eff;stroke-width:0.933195;stroke-dasharray:none;stroke-opacity:1"><tspan
           x="915.9668"
           y="130.10326"
           id="tspan1">X
</tspan></text></g><g
       id="svg-gamepad-btn-north"
       inkscape:label="svg-gamepad-btn-north"
       style="opacity:1"><path
         style="fill:#fff980;fill-opacity:0.5;stroke:#808080;stroke-width:1.68954;stroke-dasharray:none;stroke-opacity:1"
         id="svg-gamepad-btn-north-frame"
         sodipodi:type="arc"
         sodipodi:cx="206.13795"
         sodipodi:cy="75.432381"
         sodipodi:rx="10.15173"
         sodipodi:ry="10.15173"
         sodipodi:start="1.8897775"
         sodipodi:end="1.8736812"
         sodipodi:arc-type="chord"
         d="m 202.95438,85.07201 a 10.15173,10.15173 0 0 1 -6.46879,-12.784388 10.15173,10.15173 0 0 1 12.75826,-6.520181 10.15173,10.15173 0 0 1 6.57146,12.731914 10.15173,10.15173 0 0 1 -12.70536,6.622648 z"
         sodipodi:open="true"
         inkscape:label="svg-gamepad-btn-north-frame" /><text
         xml:space="preserve"
         transform="matrix(1.301978,0,0,1.301978,-991.06661,-88.392443)"
         id="text16-9"
         style="font-style:normal;font-variant:normal;font-weight:normal;font-stretch:normal;font-size:13.0059px;font-family:Consolas;-inkscape-font-specification:'Consolas, Normal';font-variant-ligatures:normal;font-variant-caps:normal;font-variant-numeric:normal;font-variant-east-asian:normal;text-align:start;writing-mode:lr-tb;direction:ltr;white-space:pre;shape-inside:url(#rect17-9);display:inline;opacity:1;fill:#fff980;fill-opacity:1;stroke:#fff880;stroke-width:0.933195;stroke-dasharray:none;stroke-opacity:1"><tspan
           x="915.9668"
           y="130.10326"
           id="tspan2">Y
</tspan></text></g><g
       id="svg-gamepad-btn-east"
       inkscape:label="svg-gamepad-btn-east"
       transform="translate(-0.54662578)"
       style="opacity:1"><path
         style="fill:#ff8280;fill-opacity:0.5;stroke:#808080;stroke-width:1.68954;stroke-dasharray:none;stroke-opacity:1"
         id="svg-gamepad-btn-east-frame"
         sodipodi:type="arc"
         sodipodi:cx="225.7149"
         sodipodi:cy="94.344185"
         sodipodi:rx="10.152"
         sodipodi:ry="10.15173"
         sodipodi:start="1.8897775"
         sodipodi:end="1.8736812"
         sodipodi:arc-type="chord"
         d="m 222.53124,103.98381 a 10.152,10.15173 0 0 1 -6.46896,-12.784384 10.152,10.15173 0 0 1 12.7586,-6.52018 10.152,10.15173 0 0 1 6.57164,12.731913 10.152,10.15173 0 0 1 -12.7057,6.622651 z"
         sodipodi:open="true"
         inkscape:label="svg-gamepad-btn-east-frame" /><text
         xml:space="preserve"
         transform="matrix(1.301978,0,0,1.301978,-970.98461,-69.201228)"
         id="text16-9-8"
         style="font-style:normal;font-variant:normal;font-weight:normal;font-stretch:normal;font-size:13.0059px;font-family:Consolas;-inkscape-font-specification:'Consolas, Normal';font-variant-ligatures:normal;font-variant-caps:normal;font-variant-numeric:normal;font-variant-east-asian:normal;text-align:start;writing-mode:lr-tb;direction:ltr;white-space:pre;shape-inside:url(#rect17-9-5);display:inline;fill:#ff8280;fill-opacity:1;stroke:#ff8280;stroke-width:0.933195;stroke-dasharray:none;stroke-opacity:1"><tspan
           x="915.9668"
           y="130.10326"
           id="tspan3">B
</tspan></text></g><g
       id="svg-gamepad-btn-south"
       inkscape:label="svg-gamepad-btn-south"
       onclick=""
       style="opacity:1"><path
         style="fill:#80ff8c;fill-opacity:0.5;stroke:#808080;stroke-width:1.68954;stroke-dasharray:none;stroke-opacity:1"
         id="svg-gamepad-btn-south-frame"
         sodipodi:type="arc"
         sodipodi:cx="206.13795"
         sodipodi:cy="112.99918"
         sodipodi:rx="10.15173"
         sodipodi:ry="10.15173"
         sodipodi:start="1.8897775"
         sodipodi:end="1.8736812"
         sodipodi:arc-type="chord"
         d="m 202.95438,122.63881 a 10.15173,10.15173 0 0 1 -6.46879,-12.78439 10.15173,10.15173 0 0 1 12.75826,-6.52018 10.15173,10.15173 0 0 1 6.57146,12.73192 10.15173,10.15173 0 0 1 -12.70536,6.62265 z"
         inkscape:label="svg-gamepad-btn-south-frame"
         sodipodi:open="true" /><text
         xml:space="preserve"
         transform="matrix(1.301978,0,0,1.301978,-991.05274,-50.97715)"
         id="text16-6"
         style="font-style:normal;font-variant:normal;font-weight:normal;font-stretch:normal;font-size:13.0059px;font-family:Consolas;-inkscape-font-specification:'Consolas, Normal';font-variant-ligatures:normal;font-variant-caps:normal;font-variant-numeric:normal;font-variant-east-asian:normal;text-align:start;writing-mode:lr-tb;direction:ltr;white-space:pre;shape-inside:url(#rect17-2);display:inline;fill:#80ff8c;fill-opacity:1;stroke:#80ff8b;stroke-width:0.933195;stroke-dasharray:none;stroke-opacity:1"><tspan
           x="915.9668"
           y="130.10326"
           id="tspan4">A
</tspan></text></g><g
       id="g37"
       inkscape:label="Dpad"
       style="opacity:1"><path
         d="m 91.684843,116.88692 c -0.6648,0 -1.199927,0.53513 -1.199927,1.19993 v 11.24737 c 0,0.14716 0.02792,0.28698 0.07596,0.41703 5.64e-4,0.002 9.79e-4,0.003 0.0016,0.005 l 0.482141,0.59428 6.294706,7.76697 6.309687,-7.89409 0.23772,-0.29766 c 0.0134,-0.0236 0.026,-0.0477 0.0377,-0.0723 0.0749,-0.15685 0.11678,-0.33281 0.11678,-0.51884 v -11.24737 c 0,-0.6648 -0.53512,-1.19993 -1.19992,-1.19993 z"
         style="opacity:1;fill:#ff9c00;fill-opacity:0.502591;stroke:#808080;stroke-width:1.815;stroke-linejoin:round;stroke-miterlimit:0;stroke-opacity:1"
         id="svg-gamepad-dpad-up" /><path
         d="m 102.99416,159.34785 c 0.6648,0 1.19992,-0.53513 1.19992,-1.19993 v -11.24737 c 0,-0.14716 -0.0279,-0.28698 -0.0759,-0.41703 -5.7e-4,-0.002 -9.8e-4,-0.003 -0.002,-0.005 l -0.48215,-0.59428 -6.294705,-7.76697 -6.30969,7.89409 -0.23772,0.29766 c -0.0134,0.0236 -0.026,0.0477 -0.0377,0.0723 -0.0749,0.15685 -0.11678,0.33281 -0.11678,0.51884 v 11.24737 c 0,0.6648 0.53512,1.19993 1.19992,1.19993 z"
         style="opacity:1;fill:#ff9c00;fill-opacity:0.502591;stroke:#808080;stroke-width:1.815;stroke-linejoin:round;stroke-miterlimit:0;stroke-opacity:1"
         id="svg-gamepad-dpad-down"
         inkscape:export-filename="path32-8.svg"
         inkscape:export-xdpi="96"
         inkscape:export-ydpi="96" /><path
         d="m 76.108742,143.77219 c 0,0.6648 0.53513,1.19992 1.19993,1.19992 h 11.24737 c 0.14716,0 0.28698,-0.0279 0.41703,-0.076 0.002,-5.6e-4 0.003,-9.8e-4 0.005,-0.002 l 0.59428,-0.48214 7.766973,-6.2947 -7.894093,-6.3097 -0.29766,-0.23772 c -0.0236,-0.0134 -0.0477,-0.026 -0.0723,-0.0377 -0.15685,-0.0749 -0.33281,-0.11678 -0.51884,-0.11678 h -11.24737 c -0.6648,0 -1.19993,0.53512 -1.19993,1.19992 z"
         style="opacity:1;fill:#ff9c00;fill-opacity:0.502591;stroke:#808080;stroke-width:1.815;stroke-linejoin:round;stroke-miterlimit:0;stroke-opacity:1"
         id="svg-gamepad-dpad-left" /><path
         d="m 118.56991,132.46235 c 0,-0.6648 -0.53513,-1.19992 -1.19993,-1.19992 h -11.24737 c -0.14716,0 -0.28698,0.0279 -0.41703,0.076 -0.002,5.6e-4 -0.003,9.8e-4 -0.005,0.002 l -0.59428,0.48214 -7.766975,6.2947 7.894095,6.30969 0.29766,0.23772 c 0.0236,0.0134 0.0477,0.026 0.0723,0.0377 0.15685,0.0749 0.33281,0.11678 0.51884,0.11678 h 11.24737 c 0.6648,0 1.19993,-0.53512 1.19993,-1.19992 z"
         style="fill:#ff9c00;fill-opacity:0.502591;stroke:#808080;stroke-width:1.815;stroke-linejoin:round;stroke-miterlimit:0;stroke-opacity:1"
         id="svg-gamepad-dpad-right" /></g><path
       style="fill:#ff9c00;fill-opacity:0.5;stroke:#808080;stroke-width:2.026;stroke-linejoin:round"
       d="M 63.044046,12.957138 C 69.761393,6.7851564 77.644686,2.8628716 82.989167,9.6271058 85.773776,13.151443 89.886263,17.117238 88.827648,33.772721 88.54733,38.18304 81.693663,36.097716 61.592679,36.714685 41.045027,37.345364 63.044046,12.957138 63.044046,12.957138 Z"
       id="svg-gamepad-lefttrigger"
       sodipodi:nodetypes="csssc"
       inkscape:label="svg-gamepad-lefttrigger" /><path
       style="fill:#ff9c00;fill-opacity:0.5;stroke:#808080;stroke-width:2.026;stroke-linejoin:round"
       d="M 207.61027,12.945434 C 200.87609,6.791826 192.9821,2.8910879 187.65612,9.6698948 c -2.77498,3.5319292 -5.90253,7.4174782 -5.77251,24.1614732 0.0343,4.419084 7.14031,2.305499 27.2429,2.867562 20.5493,0.57455 -1.51624,-23.753496 -1.51624,-23.753496 z"
       id="svg-gamepad-righttrigger"
       sodipodi:nodetypes="csssc"
       inkscape:label="svg-gamepad-righttrigger" /></g><metadata
     id="metadata1"><rdf:RDF><cc:Work
         rdf:about=""><dc:rights><cc:Agent><dc:title>Hotakus</dc:title></cc:Agent></dc:rights><dc:publisher><cc:Agent><dc:title>Hotakus</dc:title></cc:Agent></dc:publisher><dc:creator><cc:Agent><dc:title>Hotakus</dc:title></cc:Agent></dc:creator><dc:contributor><cc:Agent><dc:title>Hotakus</dc:title></cc:Agent></dc:contributor></cc:Work></rdf:RDF></metadata></svg>
